<?xml version="1.0" encoding="utf-8"?>
<!-- Generator: Adobe Illustrator 16.0.0, SVG Export Plug-In . SVG Version: 6.00 Build 0)  -->
<!DOCTYPE svg PUBLIC "-//W3C//DTD SVG 1.1//EN" "http://www.w3.org/Graphics/SVG/1.1/DTD/svg11.dtd">
<svg version="1.1" id="Icon" xmlns="http://www.w3.org/2000/svg" xmlns:xlink="http://www.w3.org/1999/xlink" x="0px" y="0px"
	 width="30px" height="30px" viewBox="0 0 30 30" enable-background="new 0 0 30 30" xml:space="preserve">
<g>
	<polygon fill="#010101" points="15.471,14.561 15.471,6.562 17.471,6.562 17.471,11.146 23.617,5 25.031,6.414 18.885,12.561 
		23.471,12.561 23.471,14.561 	"/>
	<polygon fill="#010101" points="4.969,23.586 11.115,17.439 6.529,17.439 6.529,15.439 14.529,15.439 14.529,23.438 12.529,23.438 
		12.529,18.854 6.383,25 	"/>
	<polygon fill="#010101" points="23.031,16 25.031,16 25.031,23 25.031,25 23.031,25 16.031,25 16.031,23 23.031,23 	"/>
	<polygon fill="#010101" points="6.969,14 4.969,14 4.969,7 4.969,5 6.969,5 13.969,5 13.969,7 6.969,7 	"/>
</g>
</svg>
