<svg width="96" height="96" viewBox="0 0 96 96" fill="none" xmlns="http://www.w3.org/2000/svg">
<path d="M35.3613 16.0996C36.8124 16.0996 38.1705 16.7798 39.0586 17.9229L39.2295 18.1582L43.2041 23.9668C43.7544 24.7708 44.6454 25.2412 45.5869 25.2412H71.2373C73.8629 25.2413 75.9541 27.4165 75.9541 30.0527V67.0889C75.9541 69.7251 73.8629 71.9003 71.2373 71.9004H15.9648C13.3393 71.9003 11.248 69.7251 11.248 67.0889V20.9111C11.248 18.2749 13.3393 16.0997 15.9648 16.0996H35.3613Z" fill="url(#paint0_radial_6493_142618)" stroke="white" stroke-width="1.8"/>
<path d="M76.1826 33.5342C79.1042 33.5342 81.2863 36.1976 80.8428 39.0898L76.4326 67.832C76.0757 70.1578 74.1123 71.8993 71.7725 71.8994H15.3945C13.056 71.8994 11.0913 70.1568 10.7344 67.832L7.1582 44.5176C6.71365 41.624 8.89628 38.963 11.8174 38.9629H45.1396C46.0601 38.9628 46.9336 38.513 47.4863 37.7393L49.0771 35.5117C49.9617 34.2729 51.3773 33.5342 52.8887 33.5342H76.1826Z" fill="url(#paint1_radial_6493_142618)" stroke="white" stroke-width="1.8"/>
<circle cx="71.3378" cy="62.357" r="11.7467" fill="white"/>
<mask id="path-4-outside-1_6493_142618" maskUnits="userSpaceOnUse" x="56.5492" y="47" width="32" height="33" fill="black">
<rect fill="white" x="56.5492" y="47" width="32" height="33"/>
<path d="M71.6566 48C79.4477 48 85.764 54.3154 85.764 62.1055C85.764 65.3936 84.6379 68.418 82.7513 70.8164L86.389 74.4541L86.5326 74.6133C87.201 75.4334 87.1532 76.6428 86.389 77.4072C85.6247 78.1715 84.4153 78.2201 83.5951 77.5518L83.4359 77.4072L79.7816 73.7529C79.7586 73.7299 79.7379 73.7045 79.7162 73.6807C77.4313 75.2739 74.6535 76.21 71.6566 76.21C63.8657 76.2098 57.5493 69.8954 57.5492 62.1055C57.5492 54.3156 63.8656 48.0002 71.6566 48ZM71.6644 51.916C66.0349 51.9163 61.4711 56.4798 61.4711 62.1094C61.4712 67.7389 66.0349 72.3025 71.6644 72.3027C77.2941 72.3027 81.8577 67.7391 81.8578 62.1094C81.8578 56.4797 77.2941 51.916 71.6644 51.916Z"/>
</mask>
<path d="M71.6566 48C79.4477 48 85.764 54.3154 85.764 62.1055C85.764 65.3936 84.6379 68.418 82.7513 70.8164L86.389 74.4541L86.5326 74.6133C87.201 75.4334 87.1532 76.6428 86.389 77.4072C85.6247 78.1715 84.4153 78.2201 83.5951 77.5518L83.4359 77.4072L79.7816 73.7529C79.7586 73.7299 79.7379 73.7045 79.7162 73.6807C77.4313 75.2739 74.6535 76.21 71.6566 76.21C63.8657 76.2098 57.5493 69.8954 57.5492 62.1055C57.5492 54.3156 63.8656 48.0002 71.6566 48ZM71.6644 51.916C66.0349 51.9163 61.4711 56.4798 61.4711 62.1094C61.4712 67.7389 66.0349 72.3025 71.6644 72.3027C77.2941 72.3027 81.8577 67.7391 81.8578 62.1094C81.8578 56.4797 77.2941 51.916 71.6644 51.916Z" fill="url(#paint2_linear_6493_142618)"/>
<path d="M71.6566 48V47H71.6566L71.6566 48ZM85.764 62.1055L86.764 62.1055V62.1055H85.764ZM82.7513 70.8164L81.9654 70.1982L81.4166 70.8958L82.0442 71.5235L82.7513 70.8164ZM86.389 74.4541L87.1317 73.7844L87.1144 73.7652L87.0961 73.747L86.389 74.4541ZM86.5326 74.6133L87.3078 73.9816L87.292 73.9622L87.2752 73.9436L86.5326 74.6133ZM86.389 77.4072L87.0961 78.1143L87.0962 78.1142L86.389 77.4072ZM83.5951 77.5518L82.9229 78.2921L82.9427 78.3101L82.9634 78.327L83.5951 77.5518ZM83.4359 77.4072L82.7288 78.1143L82.7458 78.1314L82.7637 78.1476L83.4359 77.4072ZM79.7162 73.6807L80.4549 73.0066L79.8637 72.3587L79.1442 72.8604L79.7162 73.6807ZM71.6566 76.21L71.6566 77.21H71.6566V76.21ZM57.5492 62.1055H56.5492V62.1055L57.5492 62.1055ZM71.6644 51.916V50.916H71.6644L71.6644 51.916ZM61.4711 62.1094H60.4711V62.1094L61.4711 62.1094ZM71.6644 72.3027L71.6644 73.3027H71.6644V72.3027ZM81.8578 62.1094L82.8578 62.1094V62.1094H81.8578ZM71.6566 48V49C78.8955 49 84.764 54.8678 84.764 62.1055H85.764H86.764C86.764 53.763 79.9998 47 71.6566 47V48ZM85.764 62.1055L84.764 62.1054C84.764 65.1612 83.7184 67.9695 81.9654 70.1982L82.7513 70.8164L83.5373 71.4346C85.5574 68.8664 86.764 65.6259 86.764 62.1055L85.764 62.1055ZM82.7513 70.8164L82.0442 71.5235L85.6819 75.1612L86.389 74.4541L87.0961 73.747L83.4585 70.1093L82.7513 70.8164ZM86.389 74.4541L85.6464 75.1238L85.79 75.283L86.5326 74.6133L87.2752 73.9436L87.1317 73.7844L86.389 74.4541ZM86.5326 74.6133L85.7574 75.245C86.1051 75.6717 86.0795 76.3024 85.6818 76.7002L86.389 77.4072L87.0962 78.1142C88.2269 76.9833 88.2968 75.1952 87.3078 73.9816L86.5326 74.6133ZM86.389 77.4072L85.6819 76.7001C85.2837 77.0983 84.653 77.1238 84.2267 76.7765L83.5951 77.5518L82.9634 78.327C84.1776 79.3163 85.9657 79.2448 87.0961 78.1143L86.389 77.4072ZM83.5951 77.5518L84.2673 76.8114L84.1081 76.6669L83.4359 77.4072L82.7637 78.1476L82.9229 78.2921L83.5951 77.5518ZM83.4359 77.4072L84.143 76.7001L80.4887 73.0458L79.7816 73.7529L79.0745 74.46L82.7288 78.1143L83.4359 77.4072ZM79.7816 73.7529L80.4887 73.0458C80.495 73.0521 80.4991 73.0565 80.5006 73.0581C80.5019 73.0595 80.5017 73.0594 80.4986 73.0559C80.4971 73.0541 80.4953 73.0521 80.4927 73.0491C80.4904 73.0465 80.4869 73.0426 80.4835 73.0387C80.4766 73.0308 80.4665 73.0194 80.4549 73.0066L79.7162 73.6807L78.9775 74.3547C78.9767 74.3539 78.9774 74.3546 78.9812 74.3589C78.9831 74.3611 78.985 74.3632 78.988 74.3667C78.9908 74.3698 78.9944 74.3739 78.9982 74.3783C79.0126 74.3946 79.0402 74.4257 79.0745 74.46L79.7816 73.7529ZM79.7162 73.6807L79.1442 72.8604C77.0213 74.3407 74.442 75.21 71.6566 75.21V76.21V77.21C74.865 77.21 77.8413 76.2071 80.2881 74.5009L79.7162 73.6807ZM71.6566 76.21L71.6566 75.21C64.4177 75.2098 58.5493 69.3429 58.5492 62.1054L57.5492 62.1055L56.5492 62.1055C56.5494 70.4479 63.3136 77.2097 71.6566 77.21L71.6566 76.21ZM57.5492 62.1055H58.5492C58.5492 54.868 64.4177 49.0002 71.6566 49L71.6566 48L71.6566 47C63.3135 47.0002 56.5492 53.7631 56.5492 62.1055H57.5492ZM71.6644 51.916L71.6644 50.916C65.4826 50.9163 60.4711 55.9275 60.4711 62.1094H61.4711H62.4711C62.4711 57.0322 66.5871 52.9163 71.6645 52.916L71.6644 51.916ZM61.4711 62.1094L60.4711 62.1094C60.4712 68.2912 65.4827 73.3024 71.6644 73.3027L71.6644 72.3027L71.6645 71.3027C66.5872 71.3025 62.4712 67.1866 62.4711 62.1094L61.4711 62.1094ZM71.6644 72.3027V73.3027C77.8464 73.3027 82.8577 68.2914 82.8578 62.1094L81.8578 62.1094L80.8578 62.1094C80.8577 67.1868 76.7418 71.3027 71.6644 71.3027V72.3027ZM81.8578 62.1094H82.8578C82.8578 55.9274 77.8464 50.916 71.6644 50.916V51.916V52.916C76.7418 52.916 80.8578 57.032 80.8578 62.1094H81.8578Z" fill="white" mask="url(#path-4-outside-1_6493_142618)"/>
<path d="M74.4547 57.3645C75.0371 56.7822 75.9816 56.7823 76.5641 57.3645C77.1465 57.9469 77.1464 58.8913 76.5641 59.4739L73.8902 62.1467L76.566 64.8225C77.1484 65.4049 77.1483 66.3494 76.566 66.9319C75.9835 67.5144 75.0392 67.5143 74.4567 66.9319L71.7809 64.2561L69.1061 66.9319C68.5236 67.5144 67.5792 67.5144 66.9967 66.9319C66.4144 66.3493 66.4143 65.4049 66.9967 64.8225L69.6715 62.1467L66.9986 59.4739C66.4162 58.8914 66.4162 57.947 66.9986 57.3645C67.5811 56.7822 68.5256 56.7821 69.108 57.3645L71.7809 60.0373L74.4547 57.3645Z" fill="url(#paint3_linear_6493_142618)"/>
<defs>
<radialGradient id="paint0_radial_6493_142618" cx="0" cy="0" r="1" gradientUnits="userSpaceOnUse" gradientTransform="translate(23 25) rotate(75.4258) scale(25.8312 30.092)">
<stop stop-color="#E5E9F1"/>
<stop offset="1" stop-color="#C6CEDC"/>
</radialGradient>
<radialGradient id="paint1_radial_6493_142618" cx="0" cy="0" r="1" gradientUnits="userSpaceOnUse" gradientTransform="translate(36.5044 44.7373) rotate(90) scale(15.2405 30.0112)">
<stop stop-color="#E5E9F1"/>
<stop offset="1" stop-color="#C6CEDC"/>
</radialGradient>
<linearGradient id="paint2_linear_6493_142618" x1="85.1567" y1="70.4113" x2="79.3996" y2="73.3754" gradientUnits="userSpaceOnUse">
<stop stop-color="#C6CEDC"/>
<stop offset="1" stop-color="#8491A7"/>
</linearGradient>
<linearGradient id="paint3_linear_6493_142618" x1="75.1588" y1="59.7612" x2="69.4014" y2="62.7258" gradientUnits="userSpaceOnUse">
<stop stop-color="#C6CEDC"/>
<stop offset="1" stop-color="#8491A7"/>
</linearGradient>
</defs>
</svg>
