<svg width="96" height="96" viewBox="0 0 96 96" fill="none" xmlns="http://www.w3.org/2000/svg">
<path d="M19.2615 28.3438C24.0163 28.3438 27.8914 32.2203 27.8914 36.9746C27.8912 41.7289 24.0158 45.6045 19.2615 45.6045H18.3621V45.5566C14.0281 45.1045 10.6316 41.4242 10.6316 36.9736C10.6318 32.2195 14.507 28.344 19.2615 28.3438Z" fill="url(#paint0_radial_6493_142607)" stroke="white" stroke-width="1.8"/>
<path d="M19.2007 45.9844C27.1532 45.9846 33.6001 52.4322 33.6001 60.3848L33.5952 60.4922C33.3971 62.7398 27.0285 64.5449 19.2007 64.5449C11.3727 64.5449 5.00336 62.7398 4.80518 60.4922L4.80029 60.3848C4.80029 52.432 11.2479 45.9844 19.2007 45.9844Z" fill="url(#paint1_radial_6493_142607)"/>
<path d="M76.8616 28.3438C81.6164 28.3438 85.4915 32.2203 85.4915 36.9746C85.4913 41.7289 81.6159 45.6045 76.8616 45.6045H75.9622V45.5566C71.6282 45.1045 68.2317 41.4242 68.2317 36.9736C68.2319 32.2195 72.1071 28.344 76.8616 28.3438Z" fill="url(#paint2_radial_6493_142607)" stroke="white" stroke-width="1.8"/>
<path d="M76.8008 45.9844C84.7533 45.9846 91.2002 52.4322 91.2002 60.3848L91.1953 60.4922C90.9971 62.7398 84.6286 64.5449 76.8008 64.5449C68.9729 64.5449 62.6034 62.7398 62.4053 60.4922L62.4004 60.3848C62.4004 52.432 68.848 45.9844 76.8008 45.9844Z" fill="url(#paint3_radial_6493_142607)"/>
<path d="M48.1016 16.5C55.6948 16.5 61.8848 22.6916 61.8848 30.2842C61.8846 37.8767 55.6941 44.0674 48.1016 44.0674C40.509 44.0672 34.3184 37.8757 34.3184 30.2832C34.3185 22.6908 40.5086 16.5001 48.1016 16.5Z" fill="url(#paint4_radial_6493_142607)" stroke="white" stroke-width="1.8"/>
<mask id="path-6-outside-1_6493_142607" maskUnits="userSpaceOnUse" x="22" y="43.2998" width="52" height="35" fill="black">
<rect fill="white" x="22" y="43.2998" width="52" height="35"/>
<path d="M48 45.2998C61.2544 45.2999 72 56.0454 72 69.2998C71.9994 73.1288 61.2544 76.2324 48 76.2324C34.7456 76.2324 24.0006 73.1288 24 69.2998C24 56.0453 34.7455 45.2998 48 45.2998Z"/>
</mask>
<path d="M48 45.2998C61.2544 45.2999 72 56.0454 72 69.2998C71.9994 73.1288 61.2544 76.2324 48 76.2324C34.7456 76.2324 24.0006 73.1288 24 69.2998C24 56.0453 34.7455 45.2998 48 45.2998Z" fill="url(#paint5_radial_6493_142607)"/>
<path d="M48 45.2998L48 43.4998H48V45.2998ZM72 69.2998L73.8 69.3001V69.2998H72ZM48 76.2324V78.0324H48L48 76.2324ZM24 69.2998H22.2V69.3001L24 69.2998ZM48 45.2998L48 47.0998C60.2603 47.0999 70.2 57.0395 70.2 69.2998H72H73.8C73.8 55.0512 62.2486 43.4999 48 43.4998L48 45.2998ZM72 69.2998L70.2 69.2995C70.2 69.3527 70.1498 69.794 69.0985 70.5119C68.1063 71.1896 66.5525 71.8713 64.4707 72.4727C60.3312 73.6684 54.5074 74.4324 48 74.4324L48 76.2324L48 78.0324C54.747 78.0324 60.9229 77.2446 65.4697 75.9313C67.731 75.2781 69.692 74.466 71.1288 73.4848C72.5066 72.5439 73.7997 71.1614 73.8 69.3001L72 69.2998ZM48 76.2324V74.4324C41.4926 74.4324 35.6688 73.6684 31.5293 72.4727C29.4475 71.8714 27.8937 71.1896 26.9015 70.5119C25.8502 69.794 25.8 69.3527 25.8 69.2995L24 69.2998L22.2 69.3001C22.2003 71.1614 23.4934 72.5439 24.8712 73.4848C26.308 74.466 28.269 75.2781 30.5303 75.9313C35.0771 77.2447 41.253 78.0324 48 78.0324V76.2324ZM24 69.2998H25.8C25.8 57.0394 35.7396 47.0998 48 47.0998V45.2998V43.4998C33.7514 43.4998 22.2 55.0512 22.2 69.2998H24Z" fill="white" mask="url(#path-6-outside-1_6493_142607)"/>
<path d="M76.8086 58.5C83.0538 58.5001 88.117 63.5621 88.1172 69.8066C88.1172 76.0514 83.0539 81.1142 76.8086 81.1143C70.5631 81.1143 65.5 76.0515 65.5 69.8066C65.5002 63.5621 70.5632 58.5 76.8086 58.5Z" fill="url(#paint6_linear_6493_142607)" stroke="white"/>
<path fill-rule="evenodd" clip-rule="evenodd" d="M76.8088 64.8945C77.3644 64.8945 77.815 65.3451 77.815 65.9008V68.8007H80.7149C81.2706 68.8007 81.721 69.2511 81.721 69.8068C81.721 70.3626 81.2706 70.813 80.7149 70.813H77.815V73.713C77.815 74.2686 77.3644 74.7191 76.8088 74.7191C76.2531 74.7191 75.8026 74.2686 75.8026 73.713V70.813H72.9027C72.347 70.813 71.8965 70.3626 71.8965 69.8068C71.8965 69.2511 72.347 68.8007 72.9027 68.8007H75.8026V65.9008C75.8026 65.3451 76.2531 64.8945 76.8088 64.8945Z" fill="white"/>
<defs>
<radialGradient id="paint0_radial_6493_142607" cx="0" cy="0" r="1" gradientUnits="userSpaceOnUse" gradientTransform="translate(17.6524 33.6003) rotate(90) scale(6.44389 6.44396)">
<stop stop-color="#E5E9F1"/>
<stop offset="1" stop-color="#C6CEDC"/>
</radialGradient>
<radialGradient id="paint1_radial_6493_142607" cx="0" cy="0" r="1" gradientUnits="userSpaceOnUse" gradientTransform="translate(16.202 51.2141) rotate(90) scale(7.7362 12.0044)">
<stop stop-color="#E5E9F1"/>
<stop offset="1" stop-color="#C6CEDC"/>
</radialGradient>
<radialGradient id="paint2_radial_6493_142607" cx="0" cy="0" r="1" gradientUnits="userSpaceOnUse" gradientTransform="translate(75.2525 33.6003) rotate(90) scale(6.44389 6.44396)">
<stop stop-color="#E5E9F1"/>
<stop offset="1" stop-color="#C6CEDC"/>
</radialGradient>
<radialGradient id="paint3_radial_6493_142607" cx="0" cy="0" r="1" gradientUnits="userSpaceOnUse" gradientTransform="translate(73.8021 51.2141) rotate(90) scale(7.7362 12.0044)">
<stop stop-color="#E5E9F1"/>
<stop offset="1" stop-color="#C6CEDC"/>
</radialGradient>
<radialGradient id="paint4_radial_6493_142607" cx="0" cy="0" r="1" gradientUnits="userSpaceOnUse" gradientTransform="translate(45.4194 24.6606) rotate(90) scale(10.7397 10.7399)">
<stop stop-color="#E5E9F1"/>
<stop offset="1" stop-color="#C6CEDC"/>
</radialGradient>
<radialGradient id="paint5_radial_6493_142607" cx="0" cy="0" r="1" gradientUnits="userSpaceOnUse" gradientTransform="translate(43.0029 54.0156) rotate(90) scale(12.893 20.0074)">
<stop stop-color="#E5E9F1"/>
<stop offset="1" stop-color="#C6CEDC"/>
</radialGradient>
<linearGradient id="paint6_linear_6493_142607" x1="83.7997" y1="64.8655" x2="71.8817" y2="71.0022" gradientUnits="userSpaceOnUse">
<stop stop-color="#C6CEDC"/>
<stop offset="1" stop-color="#8491A7"/>
</linearGradient>
</defs>
</svg>
