<svg width="23" height="20" viewBox="0 0 23 20" fill="none" xmlns="http://www.w3.org/2000/svg">
<path fill-rule="evenodd" clip-rule="evenodd" d="M8.80021 2.50606C6.3078 2.95267 4.09571 3.8825 2.15669 5.29846C1.27594 5.9417 0.286114 6.85437 0.117173 7.17916C-0.331213 8.04104 0.587517 9.02421 1.51395 8.67407C1.62799 8.63103 2.02626 8.32032 2.39903 7.98374C4.1839 6.3722 6.31435 5.30304 8.79446 4.77431C10.0758 4.5011 12.5716 4.5011 13.853 4.77431C16.4291 5.32354 18.4939 6.37238 20.3424 8.07079C21.1344 8.79844 21.5435 8.917 22.0996 8.57989C22.6049 8.27367 22.789 7.67646 22.5309 7.18039C22.2721 6.683 20.6867 5.34062 19.4255 4.551C18.7123 4.10448 17.0121 3.32402 16.1315 3.03893C14.6067 2.54523 13.5895 2.39339 11.5893 2.36092C10.0742 2.33636 9.61322 2.36039 8.80021 2.50606ZM9.56488 6.95735C8.6511 7.10962 7.46568 7.49831 6.61221 7.92556C5.19241 8.63631 3.60845 9.91479 3.45262 10.4758C3.23781 11.2494 3.93845 12.03 4.71728 11.8847C4.90615 11.8495 5.22101 11.6502 5.55367 11.355C6.29797 10.6949 6.78239 10.3788 7.72193 9.94031C8.99324 9.34706 9.88487 9.15729 11.368 9.16451C12.3985 9.16953 12.7513 9.20817 13.4593 9.39354C14.8946 9.76947 16.0444 10.3707 17.1871 11.3429C17.6239 11.7145 17.871 11.86 18.1168 11.8903C18.5491 11.9434 19.0034 11.7 19.2194 11.2995C19.5395 10.7063 19.4031 10.3603 18.5288 9.54722C16.2369 7.41602 12.7894 6.42 9.56488 6.95735ZM10.4825 11.4298C9.23594 11.6708 8.21848 12.1997 7.36058 13.0525C6.87164 13.5386 6.74281 13.8809 6.84517 14.4229C6.93026 14.8739 7.41982 15.2658 7.89813 15.2658C8.29843 15.2658 8.52635 15.1483 9.02157 14.6865C10.2508 13.5402 12.4036 13.4829 13.7587 14.5603C14.5116 15.159 14.713 15.2651 15.097 15.2655C15.9088 15.2662 16.4479 14.3376 16.0642 13.6C15.8478 13.1841 14.8171 12.3173 14.1359 11.9784C12.9837 11.4052 11.6476 11.2045 10.4825 11.4298ZM10.4531 16.023C9.09214 16.6973 8.89646 18.5038 10.0758 19.5072C11.1692 20.4375 12.9315 19.9921 13.4504 18.6542C13.5988 18.2714 13.5778 17.469 13.4088 17.0664C12.9356 15.9386 11.5856 15.4621 10.4531 16.023Z" fill="#246BEB"/>
</svg>
